<?xml version="1.0" encoding="UTF-8" standalone="no"?>
<!DOCTYPE svg PUBLIC "-//W3C//DTD SVG 1.1//EN" "http://www.w3.org/Graphics/SVG/1.1/DTD/svg11.dtd">
<svg width="100%" height="100%" viewBox="0 0 765 332" version="1.1" xmlns="http://www.w3.org/2000/svg" xmlns:xlink="http://www.w3.org/1999/xlink" xml:space="preserve" xmlns:serif="http://www.serif.com/" style="fill-rule:evenodd;clip-rule:evenodd;stroke-linecap:round;stroke-linejoin:round;stroke-miterlimit:1.5;">
    <g transform="matrix(1,0,0,1,-11,-570)">
        <g>
            <g transform="matrix(1.12779,0,0,1.12779,528.352,846.533)">
                <g>
                    <path d="M37.781,1.875C32.164,1.875 27.27,0.566 23.094,-2.047C18.914,-4.672 15.703,-8.352 13.453,-13.094C11.211,-17.832 10.094,-23.379 10.094,-29.734C10.094,-35.723 11.031,-41.77 12.906,-47.875C14.781,-53.988 17.398,-59.789 20.766,-65.281C24.129,-70.77 28.148,-75.633 32.828,-79.875C37.504,-84.113 42.645,-87.445 48.25,-89.875C53.863,-92.301 59.852,-93.516 66.219,-93.516C69.082,-93.516 75.24,-92.379 77.232,-91.05C79.482,-89.55 83.648,-86.607 85.482,-83.55C87.732,-79.8 90.282,-70.047 90.282,-70.047L72.578,-69.578C72.578,-69.578 74.982,-79.05 70.516,-78.75C61.733,-78.16 54.145,-74.566 47.594,-69.578C41.051,-64.586 35.973,-58.539 32.359,-51.438C28.742,-44.332 26.938,-36.91 26.938,-29.172C26.938,-25.555 27.25,-22.285 27.875,-19.359C28.5,-16.43 29.867,-12.66 31.984,-8.047L22.266,-20.953C25.129,-18.078 27.523,-16.203 29.453,-15.328C31.391,-14.461 34.039,-14.031 37.406,-14.031C45.383,-14.031 52.52,-18.766 58.813,-28.234C65.113,-37.711 69.703,-51.492 72.578,-69.578C73.078,-71.953 73.945,-73.789 75.188,-75.094C76.438,-76.406 78.125,-77.063 80.25,-77.063C83.238,-77.063 85.789,-75.906 87.906,-73.594C90.031,-71.289 91.344,-68.27 91.844,-64.531C92.957,-57.301 94.172,-50.848 95.484,-45.172C96.797,-39.492 98.695,-34.129 101.188,-29.078C103.688,-24.035 107.055,-18.707 111.297,-13.094C112.41,-11.844 113.031,-10.406 113.156,-8.781C113.281,-7.164 113.063,-5.578 112.5,-4.016C111.945,-2.461 111.078,-1.188 109.891,-0.188C108.703,0.813 107.301,1.313 105.688,1.313C103.938,1.313 102.5,0.938 101.375,0.188C100.258,-0.563 99.203,-1.5 98.203,-2.625C95.828,-5.988 93.578,-9.32 91.453,-12.625C89.336,-15.926 87.406,-19.727 85.656,-24.031C83.914,-28.332 82.422,-33.445 81.172,-39.375C79.93,-45.301 79.063,-52.316 78.563,-60.422L84.734,-60.609C82.484,-45.266 78.863,-33.008 73.875,-23.844C68.895,-14.676 63.223,-8.098 56.859,-4.109C50.504,-0.117 44.145,1.875 37.781,1.875Z" style="fill:rgb(168,184,124);fill-rule:nonzero;"/>
                </g>
            </g>
            <g transform="matrix(0.766195,0,0,0.766195,2.87115,659.525)">
                <g>
                    <path d="M44.125,1.391C33.156,1.391 24.828,-2.016 19.141,-8.828C13.453,-15.648 10.609,-25.57 10.609,-38.594C10.609,-46.582 11.25,-54.008 12.531,-60.875C13.813,-67.738 15.094,-74.375 16.375,-80.781C17.656,-87.188 18.297,-93.672 18.297,-100.234C18.297,-103.109 18.629,-105.313 19.297,-106.844C19.961,-108.383 21.523,-109.156 23.984,-109.156C25.828,-109.156 27.363,-108.691 28.594,-107.766C29.82,-106.848 30.719,-105.516 31.281,-103.766C31.844,-102.023 32.125,-99.926 32.125,-97.469C32.125,-92.238 31.738,-87.164 30.969,-82.25C30.207,-77.332 29.285,-72.41 28.203,-67.484C27.129,-62.566 26.207,-57.625 25.438,-52.656C24.676,-47.688 24.297,-42.586 24.297,-37.359C24.297,-29.566 25.859,-23.391 28.984,-18.828C32.109,-14.266 37.359,-11.984 44.734,-11.984C49.859,-11.984 54.109,-12.344 57.484,-13.063C60.867,-13.781 63.664,-14.598 65.875,-15.516C68.082,-16.441 69.953,-17.289 71.484,-18.063C73.023,-18.832 74.461,-19.219 75.797,-19.219C77.328,-19.219 78.523,-18.703 79.391,-17.672C80.266,-16.648 80.703,-15.422 80.703,-13.984C80.703,-12.348 80.289,-10.785 79.469,-9.297C78.656,-7.816 77.43,-6.563 75.797,-5.531C71.391,-3.176 66.492,-1.43 61.109,-0.297C55.723,0.828 50.063,1.391 44.125,1.391Z" style="fill:rgb(137,155,126);fill-rule:nonzero;"/>
                </g>
            </g>
            <g transform="matrix(0.766195,0,0,0.766195,67.8883,659.525)">
                <g>
                    <path d="M21.828,1.688C20.086,1.688 18.648,1.273 17.516,0.453C16.391,-0.359 15.547,-1.633 14.984,-3.375C14.422,-5.125 14.141,-7.176 14.141,-9.531L14.141,-29.969C14.141,-35.613 14.113,-40.508 14.063,-44.656C14.008,-48.813 13.984,-52.68 13.984,-56.266L13.984,-67.641C13.984,-69.484 14.238,-71.07 14.75,-72.406C15.27,-73.738 16.094,-74.816 17.219,-75.641C18.344,-76.461 19.773,-76.875 21.516,-76.875C23.773,-76.875 25.645,-76.102 27.125,-74.563C28.613,-73.02 29.41,-70.66 29.516,-67.484C29.516,-65.234 29.461,-62.031 29.359,-57.875C29.254,-53.727 29.125,-49.145 28.969,-44.125C28.82,-39.102 28.695,-34.055 28.594,-28.984C28.488,-23.91 28.383,-19.27 28.281,-15.063C28.188,-10.863 28.141,-7.535 28.141,-5.078C28.141,-3.129 27.625,-1.516 26.594,-0.234C25.57,1.047 23.984,1.688 21.828,1.688ZM23.203,-89.938C19.41,-89.938 16.234,-91.063 13.672,-93.313C11.109,-95.57 9.828,-98.289 9.828,-101.469C9.828,-104.238 10.828,-106.52 12.828,-108.313C14.828,-110.102 17.363,-111 20.438,-111C23,-111 25.227,-110.383 27.125,-109.156C29.02,-107.926 30.426,-106.363 31.344,-104.469C32.27,-102.57 32.734,-100.598 32.734,-98.547C32.734,-96.598 31.988,-94.676 30.5,-92.781C29.02,-90.883 26.586,-89.938 23.203,-89.938Z" style="fill:rgb(137,155,126);fill-rule:nonzero;"/>
                </g>
            </g>
            <g transform="matrix(0.766195,0,0,0.766195,101.339,659.525)">
                <g>
                    <path d="M42.891,2C34.992,2 28.688,0.102 23.969,-3.688C19.258,-7.477 15.852,-12.805 13.75,-19.672C11.656,-26.547 10.609,-34.539 10.609,-43.656C10.609,-49.195 10.891,-54.172 11.453,-58.578C12.016,-62.984 12.656,-67.18 13.375,-71.172C14.094,-75.172 14.656,-79.172 15.063,-83.172C15.57,-87.984 15.906,-91.898 16.063,-94.922C16.219,-97.953 16.398,-100.75 16.609,-103.313C16.805,-104.75 17.316,-106.031 18.141,-107.156C18.961,-108.281 20.348,-108.844 22.297,-108.844C25.578,-108.844 27.727,-106.922 28.75,-103.078C29.77,-99.234 29.875,-93.414 29.063,-85.625C28.539,-81.531 28,-77.895 27.438,-74.719C26.875,-71.539 26.363,-68.438 25.906,-65.406C25.445,-62.383 25.035,-59.207 24.672,-55.875C24.316,-52.551 24.141,-48.688 24.141,-44.281C24.141,-36.082 24.852,-29.57 26.281,-24.75C27.719,-19.938 29.867,-16.504 32.734,-14.453C35.609,-12.398 39.148,-11.375 43.359,-11.375C45.922,-11.375 47.863,-11.629 49.188,-12.141C50.52,-12.648 51.645,-13.133 52.563,-13.594C53.488,-14.063 54.617,-14.297 55.953,-14.297C57.391,-14.297 58.52,-13.832 59.344,-12.906C60.164,-11.988 60.578,-10.758 60.578,-9.219C60.578,-6.352 59.086,-3.766 56.109,-1.453C53.141,0.848 48.734,2 42.891,2ZM24.297,-57.656C22.585,-56.867 18.129,-55.668 9.817,-52.357C5.178,-50.508 -3.949,-45.653 -5.949,-45.653C-7.61,-45.653 -8.183,-48.157 -8.183,-50.107C-8.183,-52.263 -7.648,-54.157 -6.574,-55.794C-6.178,-56.396 -4.073,-58.785 0.817,-61.357C9.291,-65.814 22.697,-71.279 25.359,-72.25C29.055,-73.688 33.207,-74.836 37.813,-75.703C42.426,-76.578 46.734,-77.016 50.734,-77.016C53.703,-77.016 55.953,-76.375 57.484,-75.094C59.023,-73.813 59.797,-72.098 59.797,-69.953C59.797,-68.203 59.285,-66.914 58.266,-66.094C57.242,-65.281 55.707,-64.77 53.656,-64.563C49.352,-64.258 45.535,-63.801 42.203,-63.188C38.867,-62.57 35.789,-61.801 32.969,-60.875C30.156,-59.957 27.266,-58.883 24.297,-57.656Z" style="fill:rgb(137,155,126);fill-rule:nonzero;"/>
                </g>
            </g>
            <g transform="matrix(0.766195,0,0,0.766195,152.811,659.525)">
                <g>
                    <path d="M42.891,2C34.992,2 28.688,0.102 23.969,-3.688C19.258,-7.477 15.852,-12.805 13.75,-19.672C11.656,-26.547 10.609,-34.539 10.609,-43.656C10.609,-49.195 10.891,-54.172 11.453,-58.578C12.016,-62.984 12.656,-67.18 13.375,-71.172C14.094,-75.172 14.656,-79.172 15.063,-83.172C15.57,-87.984 15.906,-91.898 16.063,-94.922C16.219,-97.953 16.398,-100.75 16.609,-103.313C16.805,-104.75 17.316,-106.031 18.141,-107.156C18.961,-108.281 20.348,-108.844 22.297,-108.844C25.578,-108.844 27.727,-106.922 28.75,-103.078C29.77,-99.234 29.875,-93.414 29.063,-85.625C28.539,-81.531 28,-77.895 27.438,-74.719C26.875,-71.539 26.363,-68.438 25.906,-65.406C25.445,-62.383 25.035,-59.207 24.672,-55.875C24.316,-52.551 24.141,-48.688 24.141,-44.281C24.141,-36.082 24.852,-29.57 26.281,-24.75C27.719,-19.938 29.867,-16.504 32.734,-14.453C35.609,-12.398 39.148,-11.375 43.359,-11.375C45.922,-11.375 47.863,-11.629 49.188,-12.141C50.52,-12.648 51.645,-13.133 52.563,-13.594C53.488,-14.063 54.617,-14.297 55.953,-14.297C57.391,-14.297 58.52,-13.832 59.344,-12.906C60.164,-11.988 60.578,-10.758 60.578,-9.219C60.578,-6.352 59.086,-3.766 56.109,-1.453C53.141,0.848 48.734,2 42.891,2ZM24.297,-57.656C22.585,-56.867 18.129,-55.668 9.817,-52.357C5.178,-50.508 -3.949,-45.653 -5.949,-45.653C-7.61,-45.653 -8.183,-48.157 -8.183,-50.107C-8.183,-52.263 -7.648,-54.157 -6.574,-55.794C-6.178,-56.396 -4.073,-58.785 0.817,-61.357C9.291,-65.814 22.697,-71.279 25.359,-72.25C29.055,-73.688 33.207,-74.836 37.813,-75.703C42.426,-76.578 46.734,-77.016 50.734,-77.016C53.703,-77.016 55.953,-76.375 57.484,-75.094C59.023,-73.813 59.797,-72.098 59.797,-69.953C59.797,-68.203 59.285,-66.914 58.266,-66.094C57.242,-65.281 55.707,-64.77 53.656,-64.563C49.352,-64.258 45.535,-63.801 42.203,-63.188C38.867,-62.57 35.789,-61.801 32.969,-60.875C30.156,-59.957 27.266,-58.883 24.297,-57.656Z" style="fill:rgb(137,155,126);fill-rule:nonzero;"/>
                </g>
            </g>
            <g transform="matrix(0.766195,0,0,0.766195,204.283,659.525)">
                <g>
                    <path d="M32.125,1.688C29.77,1.688 27.488,1.352 25.281,0.688C23.082,0.02 21.086,-1.285 19.297,-3.234C17.504,-5.18 15.941,-8 14.609,-11.688C13.273,-15.375 12.223,-20.238 11.453,-26.281C10.68,-32.332 10.297,-39.816 10.297,-48.734C10.297,-57.336 10.473,-64.945 10.828,-71.563C11.191,-78.176 11.707,-84.273 12.375,-89.859C13.039,-95.441 13.836,-100.953 14.766,-106.391C15.473,-110.273 16.336,-112.988 17.359,-114.531C18.391,-116.07 19.773,-116.844 21.516,-116.844C23.566,-116.844 25.207,-115.969 26.438,-114.219C27.664,-112.477 28.281,-109.563 28.281,-105.469C28.281,-102.594 28.078,-99.461 27.672,-96.078C27.266,-92.703 26.773,-88.758 26.203,-84.25C25.641,-79.738 25.156,-74.379 24.75,-68.172C24.344,-61.973 24.141,-54.469 24.141,-45.656C24.141,-39 24.367,-33.441 24.828,-28.984C25.285,-24.523 25.898,-21.016 26.672,-18.453C27.441,-15.891 28.391,-14.066 29.516,-12.984C30.641,-11.91 31.77,-11.375 32.906,-11.375C34.332,-11.375 35.457,-11.523 36.281,-11.828C37.102,-12.141 37.797,-12.422 38.359,-12.672C38.922,-12.93 39.563,-13.063 40.281,-13.063C42.125,-13.063 43.352,-12.551 43.969,-11.531C44.582,-10.508 44.891,-9.281 44.891,-7.844C44.891,-6 44.273,-4.332 43.047,-2.844C41.816,-1.352 40.227,-0.227 38.281,0.531C36.332,1.301 34.281,1.688 32.125,1.688Z" style="fill:rgb(137,155,126);fill-rule:nonzero;"/>
                </g>
            </g>
            <g transform="matrix(0.766195,0,0,0.766195,239.736,659.525)">
                <g>
                    <path d="M41.813,1.531C34.02,1.531 27.691,0.07 22.828,-2.844C17.961,-5.758 14.375,-9.754 12.063,-14.828C9.758,-19.898 8.609,-25.719 8.609,-32.281C8.609,-37.508 9.555,-42.758 11.453,-48.031C13.348,-53.313 16.086,-58.129 19.672,-62.484C23.266,-66.848 27.57,-70.359 32.594,-73.016C37.613,-75.68 43.25,-77.016 49.5,-77.016C56.676,-77.016 62.469,-75.066 66.875,-71.172C71.281,-67.285 73.484,-61.445 73.484,-53.656C73.484,-48.125 71.816,-43.438 68.484,-39.594C65.16,-35.75 60.629,-32.801 54.891,-30.75C49.148,-28.695 42.691,-27.672 35.516,-27.672C29.359,-27.672 25.051,-28.516 22.594,-30.203C20.133,-31.898 18.906,-33.77 18.906,-35.813C18.906,-37.051 19.211,-37.953 19.828,-38.516C20.441,-39.078 21.469,-39.359 22.906,-39.359C24.031,-39.359 25.438,-39.176 27.125,-38.813C28.82,-38.457 31.258,-38.281 34.438,-38.281C39.563,-38.281 44.047,-38.922 47.891,-40.203C51.734,-41.484 54.781,-43.301 57.031,-45.656C59.289,-48.008 60.422,-50.727 60.422,-53.813C60.422,-57.289 59.547,-59.898 57.797,-61.641C56.055,-63.391 53.188,-64.266 49.188,-64.266C43.969,-64.266 39.305,-62.676 35.203,-59.5C31.109,-56.32 27.879,-52.172 25.516,-47.047C23.16,-41.922 21.984,-36.383 21.984,-30.438C21.984,-26.75 22.598,-23.441 23.828,-20.516C25.055,-17.598 27.051,-15.242 29.813,-13.453C32.582,-11.66 36.328,-10.766 41.047,-10.766C46.578,-10.766 51.211,-11.43 54.953,-12.766C58.703,-14.098 61.805,-15.609 64.266,-17.297C66.723,-18.984 68.797,-20.469 70.484,-21.75C72.18,-23.031 73.742,-23.672 75.172,-23.672C76.609,-23.672 77.582,-23.258 78.094,-22.438C78.602,-21.625 78.859,-20.297 78.859,-18.453C78.859,-16.398 77.859,-14.219 75.859,-11.906C73.867,-9.602 71.129,-7.426 67.641,-5.375C64.16,-3.332 60.211,-1.672 55.797,-0.391C51.391,0.891 46.727,1.531 41.813,1.531Z" style="fill:rgb(137,155,126);fill-rule:nonzero;"/>
                </g>
            </g>
            <g transform="matrix(1.12779,0,0,1.12779,97.4087,846.533)">
                <g>
                    <path d="M53.688,1.688C40.344,1.688 30.207,-2.457 23.281,-10.75C16.363,-19.039 12.906,-31.109 12.906,-46.953C12.906,-56.672 13.68,-65.707 15.234,-74.063C16.797,-82.426 18.359,-90.504 19.922,-98.297C21.484,-106.086 22.266,-113.973 22.266,-121.953C22.266,-125.441 22.664,-128.117 23.469,-129.984C24.281,-131.859 26.18,-132.797 29.172,-132.797C31.422,-132.797 33.289,-132.234 34.781,-131.109C36.281,-129.992 37.375,-128.375 38.063,-126.25C38.75,-124.133 39.094,-121.582 39.094,-118.594C39.094,-112.227 38.625,-106.051 37.688,-100.063C36.75,-94.082 35.625,-88.098 34.313,-82.109C33.008,-76.129 31.891,-70.113 30.953,-64.063C30.016,-58.008 29.547,-51.805 29.547,-45.453C29.547,-35.973 31.445,-28.457 35.25,-22.906C39.063,-17.363 45.457,-14.594 54.438,-14.594C60.664,-14.594 65.836,-15.023 69.953,-15.891C74.066,-16.766 77.461,-17.766 80.141,-18.891C82.828,-20.016 85.102,-21.039 86.969,-21.969C88.844,-22.906 90.594,-23.375 92.219,-23.375C94.082,-23.375 95.547,-22.75 96.609,-21.5C97.672,-20.258 98.203,-18.766 98.203,-17.016C98.203,-15.023 97.703,-13.125 96.703,-11.313C95.703,-9.508 94.207,-7.984 92.219,-6.734C86.852,-3.867 80.895,-1.75 74.344,-0.375C67.801,1 60.914,1.688 53.688,1.688Z" style="fill:rgb(168,184,124);fill-rule:nonzero;"/>
                </g>
            </g>
            <g transform="matrix(1.12779,0,0,1.12779,203.299,846.533)">
                <clipPath id="_clip1">
                    <rect x="11.969" y="-97.8" width="27.875" height="99.863"/>
                </clipPath>
                <g clip-path="url(#_clip1)">
                    <g>
                        <path d="M26.563,2.063C24.438,2.063 22.688,1.563 21.313,0.563C19.945,-0.438 18.922,-1.992 18.234,-4.109C17.547,-6.234 17.203,-8.727 17.203,-11.594L17.203,-36.469C17.203,-43.332 17.172,-49.285 17.109,-54.328C17.047,-59.379 17.016,-64.086 17.016,-68.453L17.016,-82.297C17.016,-84.547 17.328,-86.477 17.953,-88.094C18.578,-89.719 19.57,-91.023 20.938,-92.016C22.313,-93.016 24.063,-93.516 26.188,-93.516C28.926,-93.516 31.195,-92.578 33,-90.703C34.813,-88.836 35.781,-85.973 35.906,-82.109C35.906,-79.367 35.844,-75.473 35.719,-70.422C35.594,-65.367 35.438,-59.785 35.25,-53.672C35.07,-47.566 34.922,-41.426 34.797,-35.25C34.672,-29.082 34.547,-23.441 34.422,-18.328C34.297,-13.211 34.234,-9.16 34.234,-6.172C34.234,-3.805 33.609,-1.844 32.359,-0.281C31.109,1.281 29.176,2.063 26.563,2.063ZM28.25,-109.422C23.633,-109.422 19.766,-110.789 16.641,-113.531C13.523,-116.281 11.969,-119.586 11.969,-123.453C11.969,-126.816 13.18,-129.586 15.609,-131.766C18.047,-133.953 21.133,-135.047 24.875,-135.047C28,-135.047 30.711,-134.297 33.016,-132.797C35.316,-131.305 37.031,-129.406 38.156,-127.094C39.281,-124.789 39.844,-122.391 39.844,-119.891C39.844,-117.523 38.938,-115.188 37.125,-112.875C35.32,-110.57 32.363,-109.422 28.25,-109.422Z" style="fill:rgb(168,184,124);fill-rule:nonzero;"/>
                    </g>
                </g>
            </g>
            <g transform="matrix(1.12779,0,0,1.12779,252.658,846.533)">
                <g>
                    <path d="M39.094,2.063C36.227,2.063 33.453,1.656 30.766,0.844C28.086,0.031 25.656,-1.555 23.469,-3.922C21.289,-6.297 19.391,-9.727 17.766,-14.219C16.148,-18.707 14.875,-24.629 13.938,-31.984C13,-39.336 12.531,-48.441 12.531,-59.297C12.531,-69.766 12.75,-79.02 13.188,-87.063C13.625,-95.113 14.242,-102.535 15.047,-109.328C15.859,-116.117 16.828,-122.82 17.953,-129.438C18.828,-134.176 19.883,-137.477 21.125,-139.344C22.375,-141.219 24.063,-142.156 26.188,-142.156C28.676,-142.156 30.672,-141.094 32.172,-138.969C33.672,-136.852 34.422,-133.301 34.422,-128.313C34.422,-124.82 34.172,-121.02 33.672,-116.906C33.172,-112.789 32.578,-107.988 31.891,-102.5C31.203,-97.008 30.609,-90.492 30.109,-82.953C29.609,-75.41 29.359,-66.273 29.359,-55.547C29.359,-47.441 29.641,-40.676 30.203,-35.25C30.766,-29.832 31.516,-25.563 32.453,-22.438C33.391,-19.32 34.539,-17.109 35.906,-15.797C37.281,-14.492 38.656,-13.844 40.031,-13.844C41.77,-13.844 43.141,-14.031 44.141,-14.406C45.141,-14.781 45.984,-15.125 46.672,-15.438C47.359,-15.75 48.133,-15.906 49,-15.906C51.25,-15.906 52.75,-15.281 53.5,-14.031C54.25,-12.781 54.625,-11.285 54.625,-9.547C54.625,-6.047 53.063,-3.234 49.938,-1.109C46.82,1.004 43.207,2.063 39.094,2.063Z" style="fill:rgb(168,184,124);fill-rule:nonzero;"/>
                </g>
            </g>
            <g transform="matrix(1.12779,0,0,1.12779,305.603,846.533)">
                <g>
                    <path d="M54.625,48.813C47.133,48.813 40.707,48.156 35.344,46.844C29.988,45.539 25.906,43.703 23.094,41.328C20.289,38.961 18.891,36.098 18.891,32.734C18.891,30.734 19.453,29.141 20.578,27.953C21.703,26.773 23.445,26.188 25.813,26.188C27.438,26.188 28.898,26.5 30.203,27.125C31.516,27.75 33.07,28.43 34.875,29.172C36.688,29.922 39.117,30.609 42.172,31.234C45.234,31.859 49.195,32.172 54.063,32.172C60.164,32.172 64.93,30.891 68.359,28.328C71.797,25.773 74.227,22.129 75.656,17.391C77.094,12.648 77.813,7.164 77.813,0.938C77.813,-2.676 77.656,-6.227 77.344,-9.719C77.031,-13.219 76.688,-16.961 76.313,-20.953C75.938,-24.941 75.563,-29.582 75.188,-34.875C74.813,-40.176 74.563,-46.445 74.438,-53.688L80.797,-48.266C78.555,-39.66 75.969,-32.645 73.031,-27.219C70.102,-21.789 66.988,-17.609 63.688,-14.672C60.383,-11.742 57.172,-9.75 54.047,-8.688C50.93,-7.633 48.004,-7.109 45.266,-7.109C34.785,-7.109 26.551,-11.629 20.563,-20.672C14.582,-29.711 11.594,-44.207 11.594,-64.156C11.594,-72.508 12.031,-78.805 12.906,-83.047C13.781,-87.285 14.992,-90.148 16.547,-91.641C18.109,-93.141 19.828,-93.891 21.703,-93.891C23.691,-93.891 25.313,-93.422 26.563,-92.484C27.813,-91.555 28.68,-90.031 29.172,-87.906C29.672,-85.789 29.797,-82.926 29.547,-79.313C29.18,-71.457 29.086,-64.098 29.266,-57.234C29.453,-50.379 30.109,-44.426 31.234,-39.375C32.359,-34.32 33.977,-30.391 36.094,-27.578C38.219,-24.773 40.961,-23.375 44.328,-23.375C49.566,-23.375 54.148,-26.086 58.078,-31.516C62.004,-36.941 65.242,-44.301 67.797,-53.594C70.359,-62.883 72.266,-73.328 73.516,-84.922C73.891,-88.41 74.539,-90.742 75.469,-91.922C76.406,-93.109 78,-93.703 80.25,-93.703C81.988,-93.703 83.695,-93.141 85.375,-92.016C87.063,-90.898 88.344,-88.938 89.219,-86.125C90.094,-83.32 90.281,-79.551 89.781,-74.813C89.156,-68.457 88.906,-62.91 89.031,-58.172C89.156,-53.43 89.469,-48.973 89.969,-44.797C90.469,-40.617 91.031,-36.379 91.656,-32.078C92.281,-27.773 92.836,-23.004 93.328,-17.766C93.828,-12.523 94.078,-6.289 94.078,0.938C94.078,9.289 93.109,16.488 91.172,22.531C89.242,28.582 86.504,33.539 82.953,37.406C79.398,41.27 75.223,44.133 70.422,46C65.617,47.875 60.352,48.813 54.625,48.813Z" style="fill:rgb(168,184,124);fill-rule:nonzero;"/>
                </g>
            </g>
            <g transform="matrix(1.12779,0,0,1.12779,416.345,846.533)">
                <g>
                    <path d="M31.984,1.875C29.492,1.875 27.375,0.754 25.625,-1.484C23.875,-3.734 23,-7.289 23,-12.156C23,-20.258 22.438,-27.613 21.313,-34.219C20.195,-40.832 18.922,-47.066 17.484,-52.922C16.055,-58.785 14.75,-64.492 13.563,-70.047C12.375,-75.598 11.781,-81.301 11.781,-87.156C11.781,-96.133 13.336,-104.02 16.453,-110.813C19.578,-117.613 24.441,-122.914 31.047,-126.719C37.66,-130.52 46.203,-132.422 56.672,-132.422C62.785,-132.422 68.488,-131.484 73.781,-129.609C79.082,-127.742 83.758,-124.973 87.813,-121.297C91.863,-117.617 95.039,-113.129 97.344,-107.828C99.656,-102.535 100.813,-96.52 100.813,-89.781C100.813,-83.789 99.504,-77.988 96.891,-72.375C94.273,-66.77 90.66,-61.785 86.047,-57.422C81.43,-53.055 75.973,-49.594 69.672,-47.031C63.379,-44.477 56.488,-43.203 49,-43.203C44.383,-43.203 40.27,-43.828 36.656,-45.078C33.039,-46.328 30.172,-48.008 28.047,-50.125C25.93,-52.25 24.875,-54.43 24.875,-56.672C24.875,-58.547 25.406,-59.977 26.469,-60.969C27.531,-61.969 28.742,-62.469 30.109,-62.469C31.859,-62.469 33.414,-62.188 34.781,-61.625C36.156,-61.07 37.867,-60.516 39.922,-59.953C41.984,-59.391 44.766,-59.109 48.266,-59.109C55.367,-59.109 61.598,-60.539 66.953,-63.406C72.316,-66.27 76.523,-70.07 79.578,-74.813C82.641,-79.551 84.172,-84.539 84.172,-89.781C84.172,-95.77 82.891,-100.695 80.328,-104.563C77.773,-108.426 74.379,-111.32 70.141,-113.25C65.898,-115.188 61.41,-116.156 56.672,-116.156C47.191,-116.156 40.113,-113.66 35.438,-108.672C30.77,-103.68 28.438,-96.508 28.438,-87.156C28.438,-81.551 28.992,-75.973 30.109,-70.422C31.234,-64.867 32.539,-59.035 34.031,-52.922C35.531,-46.816 36.844,-40.055 37.969,-32.641C39.094,-25.223 39.656,-16.773 39.656,-7.297C39.656,-4.555 39.063,-2.344 37.875,-0.656C36.688,1.031 34.723,1.875 31.984,1.875Z" style="fill:rgb(168,184,124);fill-rule:nonzero;"/>
                </g>
            </g>
            <g transform="matrix(1.12779,0,0,1.12779,649.008,846.533)">
                <g>
                    <path d="M50.688,1.688C44.832,1.688 39.441,0.254 34.516,-2.609C29.586,-5.484 25.344,-9.414 21.781,-14.406C18.227,-19.395 15.453,-25.129 13.453,-31.609C11.461,-38.098 10.469,-44.957 10.469,-52.188C10.469,-60.539 12.18,-67.832 15.609,-74.063C19.047,-80.301 23.879,-85.164 30.109,-88.656C36.348,-92.145 43.52,-93.828 51.625,-93.703C57.863,-93.703 63.223,-92.859 67.703,-91.172C72.191,-89.492 75.648,-87.16 78.078,-84.172C80.516,-81.18 81.734,-77.754 81.734,-73.891C81.734,-72.266 81.297,-70.984 80.422,-70.047C79.555,-69.109 78.563,-68.641 77.438,-68.641C75.813,-68.641 74.438,-69.078 73.313,-69.953C72.195,-70.828 70.922,-71.852 69.484,-73.031C68.055,-74.219 66.094,-75.25 63.594,-76.125C61.102,-77 57.738,-77.438 53.5,-77.438C45.02,-77.438 38.535,-75.191 34.047,-70.703C29.555,-66.211 27.313,-60.039 27.313,-52.188C27.313,-45.332 28.398,-39.035 30.578,-33.297C32.766,-27.555 35.57,-23.004 39,-19.641C42.426,-16.273 46.008,-14.594 49.75,-14.594C56.363,-14.594 62.191,-19.113 67.234,-28.156C72.285,-37.195 76.305,-50.41 79.297,-67.797C82.297,-85.191 83.797,-106.301 83.797,-131.125C83.797,-135.238 84.508,-138.102 85.938,-139.719C87.375,-141.344 89.219,-142.156 91.469,-142.156C94.457,-142.156 96.758,-140.688 98.375,-137.75C100,-134.82 100.75,-130.555 100.625,-124.953C100.5,-115.723 100.156,-107.52 99.594,-100.344C99.039,-93.176 98.484,-86.191 97.922,-79.391C97.359,-72.598 97.078,-65.148 97.078,-57.047C97.078,-49.066 97.602,-42.457 98.656,-37.219C99.719,-31.977 101.031,-27.738 102.594,-24.5C104.156,-21.258 105.648,-18.641 107.078,-16.641C108.516,-14.648 109.766,-12.844 110.828,-11.219C111.891,-9.602 112.422,-7.797 112.422,-5.797C112.422,-3.805 111.703,-2.031 110.266,-0.469C108.828,1.094 106.676,1.875 103.813,1.875C100.945,1.875 98.109,0.379 95.297,-2.609C92.492,-5.609 90.063,-9.723 88,-14.953C85.945,-20.191 84.391,-26.145 83.328,-32.813C82.266,-39.488 81.859,-46.508 82.109,-53.875L90.719,-56.297C88.227,-42.336 84.891,-31.082 80.703,-22.531C76.523,-13.988 71.848,-7.816 66.672,-4.016C61.504,-0.211 56.176,1.688 50.688,1.688Z" style="fill:rgb(168,184,124);fill-rule:nonzero;"/>
                </g>
            </g>
            <g transform="matrix(0.646102,0,0,0.591273,-2.91233,388.1)">
                <path d="M356.672,512.88C360.997,516.261 365.091,535.346 365.091,535.346C365.091,535.346 370.534,516.599 376.363,514.146C381.471,511.996 400.25,513.769 400.688,533.132C401.157,553.861 380.853,578.156 364.78,578.698C349.815,579.202 331.059,552.15 330.03,534.397C328.944,515.631 352.005,509.232 356.672,512.88Z" style="fill:rgb(168,184,124);stroke:rgb(168,184,124);stroke-width:1.61px;"/>
            </g>
        </g>
    </g>
</svg>
